<svg xmlns="http://www.w3.org/2000/svg" viewBox="0 0 235.6 64.0" role="img" aria-label="RadioWid"><svg x="0" y="0" width="64" height="64" viewBox="0 0 64 64" overflow="visible"><circle cx="32" cy="32" r="3.4" fill="#e7e9ef"/><g transform="translate(32 19) rotate(0)"><path d="M-6.75 0A7.7 7.7 0 0 1 6.75 0A7.7 7.7 0 0 1 -6.75 0Z" fill="none" stroke="#e7e9ef" stroke-width="3.6" stroke-linejoin="round"/><circle r="2.6" style="fill:#9fd0ff"/></g><path d="M22.58 12.68A21.5 21.5 0 0 1 41.42 12.68" fill="none" stroke="#e7e9ef" stroke-width="3.6" stroke-linecap="round"/><path d="M19.94 7.28A27.5 27.5 0 0 1 44.06 7.28" fill="none" stroke="#e7e9ef" stroke-width="3.6" stroke-linecap="round"/><g transform="translate(45 32) rotate(90)"><path d="M-6.75 0A7.7 7.7 0 0 1 6.75 0A7.7 7.7 0 0 1 -6.75 0Z" fill="none" stroke="#e7e9ef" stroke-width="3.6" stroke-linejoin="round"/><circle r="2.6" style="fill:#9fd0ff"/></g><path d="M51.32 22.58A21.5 21.5 0 0 1 51.32 41.42" fill="none" stroke="#e7e9ef" stroke-width="3.6" stroke-linecap="round"/><path d="M56.72 19.94A27.5 27.5 0 0 1 56.72 44.06" fill="none" stroke="#e7e9ef" stroke-width="3.6" stroke-linecap="round"/><g transform="translate(32 45) rotate(180)"><path d="M-6.75 0A7.7 7.7 0 0 1 6.75 0A7.7 7.7 0 0 1 -6.75 0Z" fill="none" stroke="#e7e9ef" stroke-width="3.6" stroke-linejoin="round"/><circle r="2.6" style="fill:#9fd0ff"/></g><path d="M41.42 51.32A21.5 21.5 0 0 1 22.58 51.32" fill="none" stroke="#e7e9ef" stroke-width="3.6" stroke-linecap="round"/><path d="M44.06 56.72A27.5 27.5 0 0 1 19.94 56.72" fill="none" stroke="#e7e9ef" stroke-width="3.6" stroke-linecap="round"/><g transform="translate(19 32) rotate(270)"><path d="M-6.75 0A7.7 7.7 0 0 1 6.75 0A7.7 7.7 0 0 1 -6.75 0Z" fill="none" stroke="#e7e9ef" stroke-width="3.6" stroke-linejoin="round"/><circle r="2.6" style="fill:#9fd0ff"/></g><path d="M12.68 41.42A21.5 21.5 0 0 1 12.68 22.58" fill="none" stroke="#e7e9ef" stroke-width="3.6" stroke-linecap="round"/><path d="M7.28 44.06A27.5 27.5 0 0 1 7.28 19.94" fill="none" stroke="#e7e9ef" stroke-width="3.6" stroke-linecap="round"/></svg><path transform="translate(76.8 47.2) scale(0.042666666666666665)" d="M59 0V-509H160V-444Q183 -481 218.5 -501Q254 -521 299 -521Q330 -520 350 -512V-422Q337 -428 321.5 -430.5Q306 -433 291 -433Q247 -433 213.5 -409Q180 -385 160 -341V0Z M552 9Q497 9 455 -10.5Q413 -30 389 -65Q365 -100 365 -146Q365 -218 420 -259.5Q475 -301 571 -301Q646 -301 710 -272V-326Q710 -380 678.5 -407.5Q647 -435 586 -435Q551 -435 513 -424.5Q475 -414 428 -391L391 -467Q449 -494 499 -506.5Q549 -519 600 -519Q699 -519 753.5 -472Q808 -425 808 -338V0H710V-44Q676 -17 637 -4Q598 9 552 9ZM461 -148Q461 -111 492.5 -88.5Q524 -66 575 -66Q615 -66 648.5 -77.5Q682 -89 710 -114V-200Q681 -217 649.5 -224.5Q618 -232 579 -232Q525 -232 493 -209Q461 -186 461 -148Z M1138 8Q1067 8 1008 -27Q949 -62 915 -121.5Q881 -181 881 -255Q881 -329 915.5 -388Q950 -447 1009 -482Q1068 -517 1140 -517Q1182 -517 1221 -504Q1260 -491 1293 -467V-700L1393 -719V0H1294V-49Q1229 8 1138 8ZM1152 -79Q1195 -79 1231.5 -95Q1268 -111 1293 -141V-370Q1268 -398 1231 -414Q1194 -430 1152 -430Q1103 -430 1064 -407.5Q1025 -385 1002.5 -345.5Q980 -306 980 -256Q980 -206 1002.5 -166Q1025 -126 1064.5 -102.5Q1104 -79 1152 -79Z M1491 0V-509H1592V0Z M1932 10Q1858 10 1797.5 -25Q1737 -60 1702 -120Q1667 -180 1667 -254Q1667 -328 1702 -388.5Q1737 -449 1797.5 -484Q1858 -519 1932 -519Q2007 -519 2067 -484Q2127 -449 2162 -389Q2197 -329 2197 -254Q2197 -180 2162 -120Q2127 -60 2067 -25Q2007 10 1932 10ZM1932 -78Q1979 -78 2016.5 -101.5Q2054 -125 2076.5 -165Q2099 -205 2099 -254Q2099 -304 2076.5 -343.5Q2054 -383 2016.5 -406.5Q1979 -430 1932 -430Q1886 -430 1848 -406.5Q1810 -383 1787.5 -343.5Q1765 -304 1765 -254Q1765 -205 1787.5 -165Q1810 -125 1848 -101.5Q1886 -78 1932 -78Z M2357 0 2215 -509H2312L2411 -136L2527 -509H2614L2729 -136L2828 -509H2923L2780 0H2684L2569 -372L2454 0Z M2974 0V-509H3075V0Z M3407 8Q3336 8 3277 -27Q3218 -62 3184 -121.5Q3150 -181 3150 -255Q3150 -329 3184.5 -388Q3219 -447 3278 -482Q3337 -517 3409 -517Q3451 -517 3490 -504Q3529 -491 3562 -467V-700L3662 -719V0H3563V-49Q3498 8 3407 8ZM3421 -79Q3464 -79 3500.5 -95Q3537 -111 3562 -141V-370Q3537 -398 3500 -414Q3463 -430 3421 -430Q3372 -430 3333 -407.5Q3294 -385 3271.5 -345.5Q3249 -306 3249 -256Q3249 -206 3271.5 -166Q3294 -126 3333.5 -102.5Q3373 -79 3421 -79Z" fill="#e7e9ef"/><circle cx="142.6" cy="19.3" r="2.6" style="fill:#9fd0ff"/><circle cx="205.8" cy="19.3" r="2.6" style="fill:#9fd0ff"/></svg>
